<svg xmlns="http://www.w3.org/2000/svg" xmlns:xlink="http://www.w3.org/1999/xlink" zoomAndPan="magnify" preserveAspectRatio="xMidYMid meet" version="1.0" viewBox="37.5 149.92 279.72 73.43"><defs><g/></defs><path fill="rgb(0%, 0%, 0%)" d="M 37.507812 151.34375 L 37.507812 223.34375 L 164.992188 223.34375 L 164.992188 151.34375 L 37.507812 151.34375 M 161.515625 219.882812 L 40.910156 219.882812 L 40.910156 154.730469 L 161.515625 154.730469 L 161.515625 219.882812 " fill-opacity="1" fill-rule="nonzero"/><g fill="rgb(0%, 0%, 0%)" fill-opacity="1"><g transform="translate(187.499992, 181.128855)"><g><path d="M 0.453125 -30.578125 L 19.09375 -30.578125 L 19.09375 -26.234375 L 12.078125 -26.234375 L 12.078125 0 L 7.5 0 L 7.5 -26.234375 L 0.453125 -26.234375 Z M 0.453125 -30.578125 "/></g></g></g><g fill="rgb(0%, 0%, 0%)" fill-opacity="1"><g transform="translate(216.809735, 181.128855)"><g><path d="M 21.125 -30.578125 L 21.125 -26.234375 L 8.875 -26.234375 L 8.875 -18.890625 L 20.796875 -18.890625 L 20.796875 -14.5625 L 8.875 -14.5625 L 8.875 -4.34375 L 21.125 -4.34375 L 21.125 0 L 4.25 0 L 4.25 -30.578125 Z M 21.125 -30.578125 "/></g></g></g><g fill="rgb(0%, 0%, 0%)" fill-opacity="1"><g transform="translate(251.551186, 181.128855)"><g><path d="M 2.546875 -15.171875 C 2.546875 -17.359375 2.953125 -19.414062 3.765625 -21.34375 C 4.578125 -23.28125 5.707031 -24.976562 7.15625 -26.4375 C 8.601562 -27.894531 10.3125 -29.050781 12.28125 -29.90625 C 14.257812 -30.757812 16.394531 -31.1875 18.6875 -31.1875 C 21.414062 -31.1875 24.066406 -30.425781 26.640625 -28.90625 L 26.640625 -23.484375 C 24.015625 -25.691406 21.257812 -26.796875 18.375 -26.796875 C 16.800781 -26.796875 15.332031 -26.492188 13.96875 -25.890625 C 12.601562 -25.285156 11.421875 -24.460938 10.421875 -23.421875 C 9.421875 -22.378906 8.628906 -21.15625 8.046875 -19.75 C 7.460938 -18.34375 7.171875 -16.828125 7.171875 -15.203125 C 7.171875 -13.640625 7.460938 -12.160156 8.046875 -10.765625 C 8.628906 -9.367188 9.421875 -8.148438 10.421875 -7.109375 C 11.421875 -6.078125 12.609375 -5.257812 13.984375 -4.65625 C 15.367188 -4.0625 16.84375 -3.765625 18.40625 -3.765625 C 19.1875 -3.765625 19.914062 -3.828125 20.59375 -3.953125 C 21.269531 -4.078125 21.929688 -4.273438 22.578125 -4.546875 C 23.234375 -4.816406 23.882812 -5.171875 24.53125 -5.609375 C 25.175781 -6.054688 25.878906 -6.609375 26.640625 -7.265625 L 26.640625 -1.703125 C 24.015625 -0.191406 21.242188 0.5625 18.328125 0.5625 C 16.109375 0.5625 14.03125 0.148438 12.09375 -0.671875 C 10.164062 -1.492188 8.5 -2.613281 7.09375 -4.03125 C 5.6875 -5.445312 4.578125 -7.109375 3.765625 -9.015625 C 2.953125 -10.921875 2.546875 -12.972656 2.546875 -15.171875 Z M 2.546875 -15.171875 "/></g></g></g><g fill="rgb(0%, 0%, 0%)" fill-opacity="1"><g transform="translate(290.508279, 181.128855)"><g><path d="M 8.875 -30.578125 L 8.875 -18.609375 L 22.0625 -18.609375 L 22.0625 -30.578125 L 26.6875 -30.578125 L 26.6875 0 L 22.0625 0 L 22.0625 -14.265625 L 8.875 -14.265625 L 8.875 0 L 4.25 0 L 4.25 -30.578125 Z M 8.875 -30.578125 "/></g></g></g><g fill="rgb(0%, 0%, 0%)" fill-opacity="1"><g transform="translate(187.499992, 222.378852)"><g><path d="M 4.25 0 L 4.25 -30.578125 L 8.875 -30.578125 L 8.875 -4.34375 L 17.875 -4.34375 L 17.875 0 Z M 4.25 0 "/></g></g></g><g fill="rgb(0%, 0%, 0%)" fill-opacity="1"><g transform="translate(215.836883, 222.378852)"><g><path d="M 15.125 -32.484375 L 15.25 -32.484375 L 29.71875 0 L 24.65625 0 L 21.40625 -7.421875 L 8.3125 -7.421875 L 4.953125 0 L 0 0 Z M 19.546875 -11.765625 L 17.640625 -16.140625 C 17.179688 -17.160156 16.734375 -18.175781 16.296875 -19.1875 C 15.867188 -20.207031 15.453125 -21.234375 15.046875 -22.265625 C 14.585938 -21.234375 14.117188 -20.195312 13.640625 -19.15625 C 13.171875 -18.113281 12.707031 -17.082031 12.25 -16.0625 L 10.296875 -11.765625 Z M 19.546875 -11.765625 "/></g></g></g><g fill="rgb(0%, 0%, 0%)" fill-opacity="1"><g transform="translate(255.320937, 222.378852)"><g><path d="M 4.25 0 L 4.25 -30.578125 L 9.53125 -30.578125 C 12.9375 -30.578125 15.578125 -29.894531 17.453125 -28.53125 C 19.335938 -27.164062 20.28125 -25.085938 20.28125 -22.296875 C 20.28125 -20.953125 19.960938 -19.742188 19.328125 -18.671875 C 18.691406 -17.597656 17.859375 -16.78125 16.828125 -16.21875 L 16.828125 -16.171875 C 18.691406 -15.640625 20.15625 -14.707031 21.21875 -13.375 C 22.289062 -12.050781 22.828125 -10.515625 22.828125 -8.765625 C 22.828125 -7.273438 22.554688 -5.984375 22.015625 -4.890625 C 21.472656 -3.796875 20.710938 -2.878906 19.734375 -2.140625 C 18.765625 -1.410156 17.597656 -0.867188 16.234375 -0.515625 C 14.867188 -0.171875 13.347656 0 11.671875 0 Z M 12.125 -4.34375 C 13.175781 -4.34375 14.078125 -4.460938 14.828125 -4.703125 C 15.585938 -4.941406 16.210938 -5.265625 16.703125 -5.671875 C 17.191406 -6.078125 17.539062 -6.554688 17.75 -7.109375 C 17.96875 -7.671875 18.078125 -8.273438 18.078125 -8.921875 C 18.078125 -9.566406 17.96875 -10.164062 17.75 -10.71875 C 17.539062 -11.28125 17.1875 -11.773438 16.6875 -12.203125 C 16.1875 -12.640625 15.523438 -12.976562 14.703125 -13.21875 C 13.878906 -13.457031 12.859375 -13.578125 11.640625 -13.578125 L 8.875 -13.578125 L 8.875 -4.34375 Z M 10.421875 -17.4375 C 12.253906 -17.4375 13.585938 -17.851562 14.421875 -18.6875 C 15.265625 -19.53125 15.6875 -20.691406 15.6875 -22.171875 C 15.6875 -23.640625 15.257812 -24.695312 14.40625 -25.34375 C 13.5625 -25.988281 12.234375 -26.3125 10.421875 -26.3125 L 8.875 -26.3125 L 8.875 -17.4375 Z M 10.421875 -17.4375 "/></g></g></g></svg>